{"title":"James Dean 2001 DVDRip XviD AC3 titler","uid":8935898,"size":854105983,"categoryP":"video","categoryS":"movies","magnet":"?xt=urn:btih:6220d3f2c973653d55e41a7e04c984be70e53fe8&amp;dn=James+Dean+2001+DVDRip+XviD+AC3+titler&amp;tr=udp%3A%2F%2Ftracker.openbittorrent.com%3A80&amp;tr=udp%3A%2F%2Fopen.demonii.com%3A1337&amp;tr=udp%3A%2F%2Ftracker.coppersurfer.tk%3A6969&amp;tr=udp%3A%2F%2Fexodus.desync.com%3A6969","seeders":6,"leechers":1,"uploader":"movieZ.freak","files":4,"time":1379561669,"description":"SOURCE: DVD5\n\n &lt;a href=&quot;\nhttp://www.imdb.com/title/tt0240628/&quot; rel=&quot;nofollow&quot; target=&quot;_NEW&quot;&gt;\nhttp://www.imdb.com/title/tt0240628/&lt;/a&gt;\n\n &lt;a href=&quot;\nhttp://www.rottentomatoes.com/m/1111496-james_dean/&quot; rel=&quot;nofollow&quot; target=&quot;_NEW&quot;&gt;\nhttp://www.rottentomatoes.com/m/1111496-james_dean/&lt;/a&gt;\n\n &lt;a href=&quot;\nhttp://en.wikipedia.org/wiki/James_Dean_%28film%29&quot; rel=&quot;nofollow&quot; target=&quot;_NEW&quot;&gt;\nhttp://en.wikipedia.org/wiki/James_Dean_%28film%29&lt;/a&gt;\n\n\n\n- SAMPLE: Yes\n\n- SUBTITLE: English\n\n- LANGUAGE: English\n\n\n\nDVD MENU:\n------------- &lt;a href=&quot;\nhttp://someimage.com/PAFn&quot; rel=&quot;nofollow&quot; target=&quot;_NEW&quot;&gt;\nhttp://someimage.com/PAFn&lt;/a&gt;\n\n\n\nSCREENSHOTS:\n------------------ &lt;a href=&quot;\nhttp://someimage.com/UnJk&quot; rel=&quot;nofollow&quot; target=&quot;_NEW&quot;&gt;\nhttp://someimage.com/UnJk&lt;/a&gt;\n\n\n\nDURATION: 95 min (DVD)\n\n\n\nCAST: James Franco, Michael Moriarty, Valentina Cervi, Enrico Colantoni, Edward Herrmann, Samuel Gould\n\n\n\nPLOT:\n---------\nA biopic about the actor James Dean, whose stardom of the ultimate teenage rebel as well as the premature death made him a legend. His roles are depicted having much in common with his personal life, most notably the difficult relationship with his father.\n\n\n\nGeneral\n-------------\nFormat : AVI\nFormat/Info : Audio Video Interleave\nFile size: 802 MiB\nDuration: 1h 35mn\nOverall bit rate: 1172 Kbps\nWriting application : VirtualDubMod 1.5.4.1\nWriting library: VirtualDub build 32842\n\n\nVideo\n----------\nFormat : MPEG-4 Visual\nFormat profile : Advanced Simple@L5\nFormat settings, BVOP : 1\nFormat settings, QPel : No\nFormat settings, GMC : No warppoints\nFormat settings, Matrix : Custom\nCodec ID : XVID\nCodec ID/Hint : XviD\nDuration : 1h 35mn\nBit rate : 1035 Kbps\nWidth : 512 pixels\nHeight : 384 pixels\nDisplay aspect ratio : 4:3\nFrame rate : 23.976 fps\nColor space : YUV\nChroma subsampling : 4:2:0\nBit depth : 8 bits\nScan type : Progressive\nCompression mode : Lossy\nBits/(Pixel*Frame) : 0.219\nStream size : 708 MiB (88%)\nWriting library : XviD 64\n\nAudio\n--------\nFormat : AC-3\nFormat/Info : Audio Coding 3\nMode extension : CM (complete main)\nFormat settings, Endianness : Big\nCodec ID : 2000\nDuration : 1h 35mn\nBit rate mode : Constant\nBit rate : 128 Kbps\nChannel(s) : 2 channels\nChannel positions : Front: L R\nSampling rate : 48.0 KHz\nBit depth : 16 bits\nCompression mode : Lossy\nStream size : 87.6 MiB (11%)\nAlignment : Aligned on interleaves\nInterleave, duration : 42 ms (1.00 video frame)\nInterleave, preload duration : 512 ms\n","torrent":{"xt":"urn:btih:6220d3f2c973653d55e41a7e04c984be70e53fe8","amp;dn":"James+Dean+2001+DVDRip+XviD+AC3+titler","amp;tr":["udp%3A%2F%2Ftracker.openbittorrent.com%3A80","udp%3A%2F%2Fopen.demonii.com%3A1337","udp%3A%2F%2Ftracker.coppersurfer.tk%3A6969","udp%3A%2F%2Fexodus.desync.com%3A6969"],"infoHash":"6220d3f2c973653d55e41a7e04c984be70e53fe8","infoHashBuffer":{"type":"Buffer","data":[98,32,211,242,201,115,101,61,85,228,26,126,4,201,132,190,112,229,63,232]},"announce":[],"urlList":[]}}